<?xml version="1.0" encoding="iso-8859-1"?>
<!-- Generator: Adobe Illustrator 19.0.0, SVG Export Plug-In . SVG Version: 6.00 Build 0)  -->
<svg version="1.1" id="Capa_1" xmlns="http://www.w3.org/2000/svg" xmlns:xlink="http://www.w3.org/1999/xlink" x="0px" y="0px"
	 viewBox="0 0 512 512" style="enable-background:new 0 0 512 512;" xml:space="preserve">
<path style="fill:#FFC107;" d="M10.667,0h490.667C507.224,0,512,4.776,512,10.667v490.667c0,5.891-4.776,10.667-10.667,10.667
	H10.667C4.776,512,0,507.224,0,501.333V10.667C0,4.776,4.776,0,10.667,0z"/>
<path style="fill:#5D4037;" d="M53.333,42.667h405.333c5.891,0,10.667,4.776,10.667,10.667v405.333
	c0,5.891-4.776,10.667-10.667,10.667H53.333c-5.891,0-10.667-4.776-10.667-10.667V53.333C42.667,47.442,47.442,42.667,53.333,42.667
	z"/>
<g>
	<path style="fill:#FFC107;" d="M288,362.667c-4.589-0.004-8.662-2.942-10.112-7.296L224,193.728l-53.888,161.643
		c-2.074,5.514-8.225,8.303-13.739,6.229c-5.22-1.963-8.047-7.617-6.485-12.971l64-192c2.519-5.585,9.089-8.07,14.674-5.55
		c2.465,1.112,4.438,3.086,5.55,5.55l64,192c1.862,5.589-1.16,11.629-6.749,13.491C290.278,362.481,289.143,362.666,288,362.667z"/>
	<path style="fill:#FFC107;" d="M266.667,298.667h-85.333c-5.891,0-10.667-4.776-10.667-10.667c0-5.891,4.776-10.667,10.667-10.667
		h85.333c5.891,0,10.667,4.776,10.667,10.667C277.333,293.891,272.558,298.667,266.667,298.667z"/>
	<path style="fill:#FFC107;" d="M352,362.667c-5.891,0-10.667-4.776-10.667-10.667V202.667c0-5.891,4.776-10.667,10.667-10.667
		c5.891,0,10.667,4.776,10.667,10.667V352C362.667,357.891,357.891,362.667,352,362.667z"/>
	<circle style="fill:#FFC107;" cx="352" cy="160" r="10.667"/>
</g>
<g>
</g>
<g>
</g>
<g>
</g>
<g>
</g>
<g>
</g>
<g>
</g>
<g>
</g>
<g>
</g>
<g>
</g>
<g>
</g>
<g>
</g>
<g>
</g>
<g>
</g>
<g>
</g>
<g>
</g>
</svg>
