<?xml version="1.0" encoding="utf-8"?>
<!-- Generator: Adobe Illustrator 18.1.1, SVG Export Plug-In . SVG Version: 6.00 Build 0)  -->
<!DOCTYPE svg PUBLIC "-//W3C//DTD SVG 1.1//EN" "http://www.w3.org/Graphics/SVG/1.1/DTD/svg11.dtd">
<svg version="1.1" id="Layer_1" xmlns="http://www.w3.org/2000/svg" xmlns:xlink="http://www.w3.org/1999/xlink" x="0px" y="0px"
	 viewBox="0 0 80.9 99.9" enable-background="new 0 0 80.9 99.9" xml:space="preserve">
<g>
	<g>
		<path d="M7.4,0.2c0.3-0.3,0.6-0.3,1,0S8.4,2,7.6,4.7C6.8,7.3,6.4,9,6.3,9.7c-0.4,2.3-0.8,4.6-1.1,7.1c-0.9,8.1-0.2,13.3,2,15.6
			c0.2-0.2,0.3-0.4,0.4-0.7C7.7,31.3,8,30.8,8.3,30c0.3-0.8,1.3-2,2.8-3.5c1.5-1.5,3.5-2.7,6-3.7c2.5-1,5-1.4,7.6-1.4
			c5.5,0.1,10.2,2.2,14.3,6.3c4.1,4.1,6.1,8.9,6.2,14.4c0.1,5.5-1.9,10.3-5.9,14.4c-4,4-9,5.6-14.8,4.8c-5.8-0.8-10.9-3.5-15.3-7.9
			c-5.5-5.5-8.5-12.1-9-19.7c-0.4-6.6,1-15.7,4.4-27.2C4.8,5.2,5.3,3.9,6,2.6S7,0.6,7.4,0.2z M16.1,50c3.3,3.3,6.8,5.5,10.5,6.8
			c4.5,1.5,8.2,0.8,11.1-2.1c2.9-2.9,3.8-6.4,2.6-10.6c-1-3.5-3-6.8-6.2-9.9c-6.2-6.2-11.9-8.6-17.3-7.4c-2,0.5-3.8,1.5-5.4,3.1
			c-2.9,2.9-3.8,6.1-2.6,9.7c1,3,3.3,6.4,7,10.2L16.1,50z"/>
	</g>
	<g>
		<path d="M74.9,41c0.6,1.3,1.1,2.5,1.5,3.8c3.4,11.5,4.8,20.6,4.4,27.2c-0.5,7.7-3.5,14.2-9,19.7c-4.4,4.4-9.5,7-15.3,7.9
			c-5.8,0.8-10.7-0.8-14.8-4.8c-4-4-6-8.8-5.9-14.4c0.1-5.5,2.2-10.3,6.2-14.4c4.1-4.1,8.8-6.1,14.3-6.3c2.6,0,5.1,0.4,7.6,1.4
			c2.5,1,4.5,2.2,6,3.7c1.5,1.5,2.4,2.6,2.8,3.4c0.3,0.8,0.6,1.4,0.7,1.7c0.1,0.3,0.3,0.6,0.4,0.7c2.2-2.3,2.9-7.5,2-15.6
			c-0.3-2.4-0.6-4.8-1.1-7.1c-0.1-0.7-0.6-2.4-1.4-5c-0.8-2.6-1-4.1-0.7-4.4c0.3-0.3,0.6-0.3,1,0C73.8,38.9,74.3,39.7,74.9,41z
			 M65.1,88c3.7-3.8,6-7.2,7-10.2c1.1-3.6,0.3-6.8-2.6-9.7C67.8,66.5,66,65.5,64,65c-5.4-1.2-11.1,1.2-17.3,7.4
			c-3.2,3.2-5.2,6.5-6.2,9.9c-1.2,4.1-0.3,7.7,2.6,10.6c2.9,2.9,6.6,3.6,11.1,2.1c3.7-1.2,7.2-3.5,10.5-6.8L65.1,88z"/>
	</g>
	<path fill="#F9ED32" d="M16.1,50c3.3,3.3,6.8,5.5,10.5,6.8c4.5,1.5,8.2,0.8,11.1-2.1c2.9-2.9,3.8-6.4,2.6-10.6
		c-1-3.5-3-6.8-6.2-9.9c-6.2-6.2-11.9-8.6-17.3-7.4c-2,0.5-3.8,1.5-5.4,3.1c-2.9,2.9-3.8,6.1-2.6,9.7c1,3,3.3,6.4,7,10.2L16.1,50z"
		/>
	<path fill="#F9ED32" d="M65.1,88c3.7-3.8,6-7.2,7-10.2c1.1-3.6,0.3-6.8-2.6-9.7C67.8,66.5,66,65.5,64,65
		c-5.4-1.2-11.1,1.2-17.3,7.4c-3.2,3.2-5.2,6.5-6.2,9.9c-1.2,4.1-0.3,7.7,2.6,10.6c2.9,2.9,6.6,3.6,11.1,2.1
		c3.7-1.2,7.2-3.5,10.5-6.8L65.1,88z"/>
</g>
</svg>
