<?xml version="1.0" encoding="utf-8"?>
<!-- Generator: Adobe Illustrator 18.1.1, SVG Export Plug-In . SVG Version: 6.00 Build 0)  -->
<!DOCTYPE svg PUBLIC "-//W3C//DTD SVG 1.1//EN" "http://www.w3.org/Graphics/SVG/1.1/DTD/svg11.dtd">
<svg version="1.1" xmlns="http://www.w3.org/2000/svg" xmlns:xlink="http://www.w3.org/1999/xlink" x="0px" y="0px"
	 viewBox="0 0 1024 1024" enable-background="new 0 0 1024 1024" xml:space="preserve">
<g id="Layer_1">
</g>
<g id="Layer_2" display="none">
	<g display="inline" opacity="0.7">
		<path stroke="#000000" stroke-width="0.75" stroke-miterlimit="10" d="M411.4,80.3c37.2-20.8,85.5-7.2,106.3,30l339.7,607
			c20.8,37.2,7.2,85.5-30,106.3L612.6,943.7c-37.2,20.8-85.5,7.2-106.3-30l-339.7-607c-20.8-37.2-7.2-85.5,30-106.3L411.4,80.3
			 M327.2,181.7c6.2-3.5,8-9.9,4.5-16.1c-3.5-6.2-9.9-8-16.1-4.5c-6.2,3.5-8,9.9-4.5,16.1C314.5,183.3,321,185.1,327.2,181.7
			 M319.3,240.3l61.9-34.7c6.2-3.5,8-9.9,4.5-16.1c-3.5-6.2-9.9-8-16.1-4.5l-61.9,34.7c-6.2,3.5-8,9.9-4.5,16.1
			C306.7,241.9,313.1,243.7,319.3,240.3 M507.3,867.1L817,693.8L516.7,156.9L207,330.2L507.3,867.1 M708.4,863
			c16.5-9.2,22.9-31.8,13.6-48.3s-31.8-22.9-48.3-13.6c-16.5,9.2-22.9,31.8-13.6,48.3C669.3,865.9,691.9,872.2,708.4,863
			 M399.9,59.6L185.1,179.8c-49.6,27.7-66.8,88.9-39.1,138.5l339.7,607c27.7,49.6,88.9,66.8,138.5,39.1l214.7-120.1
			c49.6-27.7,66.8-88.9,39.1-138.5l-339.7-607C510.6,49.2,449.4,31.9,399.9,59.6L399.9,59.6z M239.2,339.3l268.4-150.2l277.3,495.5
			L516.4,834.9L239.2,339.3L239.2,339.3z M696.8,842.3c-6.2,3.5-12.6,1.6-16.1-4.5s-1.6-12.6,4.5-16.1c6.2-3.5,12.6-1.6,16.1,4.5
			C704.9,832.4,703,838.9,696.8,842.3L696.8,842.3z"/>
	</g>
</g>
<g id="Layer_3">
</g>
<g id="Layer_4">
	<path stroke="#333333" stroke-miterlimit="10" d="M850.6,868.3L286,948.5c-19.7,2.8-38-10.9-40.8-30.6L142.8,196.5
		c-2.8-19.7,10.9-38,30.6-40.8L738,75.5c19.7-2.8,38,10.9,40.8,30.6l102.5,721.4C884,847.2,870.3,865.5,850.6,868.3z"/>
	<circle fill="#EEEEEE" stroke="#EEEEEE" stroke-width="12" stroke-miterlimit="10" cx="563.6" cy="862.4" r="19.1"/>
	<path fill="#EEEEEE" d="M772.2,791.4l-432.2,61.4c-18.8,2.7-36.2-10.3-38.8-28.9L218,238.3c-2.6-18.6,10.5-35.9,29.2-38.5
		l432.2-61.4c18.8-2.7,36.2,10.3,38.8,28.9l83.2,585.6C804,771.4,790.9,788.7,772.2,791.4z"/>
	<path d="M481.5,147.6l-41.8,5.9c-2,0.3-4-1.1-4.3-3.2l0-0.4c-0.3-2,1.1-4,3.2-4.3l41.8-5.9c2-0.3,4,1.1,4.3,3.2l0,0.4
		C485,145.4,483.6,147.3,481.5,147.6z"/>
	<line fill="none" stroke="#007AFF" stroke-width="8" stroke-miterlimit="10" x1="509.7" y1="496" x2="755.5" y2="461.1"/>
	<line fill="none" stroke="#007AFF" stroke-width="8" stroke-miterlimit="10" x1="546.2" y1="312.9" x2="732.4" y2="286.5"/>
	<line fill="none" stroke="#007AFF" stroke-width="8" stroke-miterlimit="10" x1="598" y1="677.7" x2="782.5" y2="651.5"/>
	<line fill="none" stroke="#007AFF" stroke-width="8" stroke-miterlimit="10" x1="594.2" y1="223.6" x2="719.2" y2="205.8"/>
	<line fill="none" stroke="#007AFF" stroke-width="8" stroke-miterlimit="10" x1="619.2" y1="399.7" x2="746" y2="381.7"/>
	<line fill="none" stroke="#007AFF" stroke-width="8" stroke-miterlimit="10" x1="645" y1="580.8" x2="770" y2="563"/>
	<line fill="none" stroke="#007AFF" stroke-width="8" stroke-miterlimit="10" x1="667.6" y1="740" x2="792.6" y2="722.3"/>
</g>
</svg>
