<?xml version="1.0" encoding="iso-8859-1"?>
<!-- Generator: Adobe Illustrator 21.0.0, SVG Export Plug-In . SVG Version: 6.00 Build 0)  -->
<svg xmlns="http://www.w3.org/2000/svg" xmlns:xlink="http://www.w3.org/1999/xlink" version="1.1" id="Capa_1" x="0px" y="0px" viewBox="0 0 512 512" style="enable-background:new 0 0 512 512;" xml:space="preserve" width="512px" height="512px">
<g>
	<g>
		<g>
			<path d="M469.333,0H42.667C19.114,0.028,0.028,19.114,0,42.667v426.667C0.028,492.886,19.114,511.972,42.667,512h426.667     c23.552-0.028,42.638-19.114,42.667-42.667V42.667C511.972,19.114,492.886,0.028,469.333,0z M494.933,469.333     c0,14.138-11.461,25.6-25.6,25.6H42.667c-14.138,0-25.6-11.461-25.6-25.6v-384h477.867V469.333z M494.933,68.267H17.067v-25.6     c0-14.138,11.462-25.6,25.6-25.6h426.667c14.138,0,25.6,11.462,25.6,25.6V68.267z" fill="#FFFFFF"/>
			<path d="M59.733,34.133H51.2c-4.713,0-8.533,3.82-8.533,8.533S46.487,51.2,51.2,51.2h8.533c4.713,0,8.533-3.82,8.533-8.533     S64.446,34.133,59.733,34.133z" fill="#FFFFFF"/>
			<path d="M99.925,36.608c-3.422-3.157-8.695-3.157-12.117,0c-0.771,0.816-1.38,1.772-1.792,2.816     c-1.125,2.624-0.848,5.639,0.736,8.015c1.584,2.376,4.26,3.791,7.115,3.761c1.115-0.013,2.217-0.245,3.243-0.683     c1.034-0.433,1.986-1.039,2.816-1.792c0.751-0.831,1.357-1.783,1.792-2.816c0.91-2.066,0.91-4.419,0-6.485     C101.305,38.38,100.697,37.424,99.925,36.608z" fill="#FFFFFF"/>
			<path d="M134.059,36.608c-0.405-0.367-0.833-0.709-1.28-1.024c-0.476-0.323-0.992-0.581-1.536-0.768     c-0.484-0.246-1.001-0.419-1.536-0.512c-2.811-0.573-5.722,0.29-7.765,2.304c-0.771,0.816-1.38,1.772-1.792,2.816     c-1.125,2.624-0.848,5.639,0.735,8.015c1.584,2.376,4.26,3.791,7.115,3.761c2.269,0.019,4.451-0.872,6.059-2.475     c0.751-0.831,1.357-1.783,1.792-2.816c0.91-2.066,0.91-4.419,0-6.485C135.438,38.38,134.83,37.424,134.059,36.608z" fill="#FFFFFF"/>
			<path d="M460.8,34.133H170.667c-4.713,0-8.533,3.82-8.533,8.533s3.82,8.533,8.533,8.533H460.8c4.713,0,8.533-3.82,8.533-8.533     S465.513,34.133,460.8,34.133z" fill="#FFFFFF"/>
			<path d="M256,460.97c78.185,0,143.895-58.731,152.637-136.426s-42.273-149.559-118.503-166.934V128     c0-4.713-3.82-8.533-8.533-8.533s-8.533,3.82-8.533,8.533v110.933c0,4.713,3.82,8.533,8.533,8.533h26.718L256,325.973     l-52.318-78.507H230.4c4.713,0,8.533-3.82,8.533-8.533V128c0-4.713-3.82-8.533-8.533-8.533s-8.533,3.82-8.533,8.533v29.611     c-76.23,17.375-127.246,89.239-118.504,166.934S177.815,460.97,256,460.97z M221.867,175.07v55.33h-34.133     c-3.148,0-6.04,1.732-7.525,4.508s-1.321,6.143,0.426,8.762L248.9,346.027c0.574,0.831,1.294,1.55,2.125,2.125     c0.094,0.068,0.145,0.171,0.239,0.239c0.094,0.068,0.23,0.094,0.341,0.162c0.471,0.278,0.969,0.51,1.485,0.691     c0.222,0.085,0.435,0.188,0.666,0.256c0.701,0.212,1.427,0.336,2.159,0.367h0.171c0.73-0.015,1.455-0.121,2.159-0.316     c0.23-0.068,0.444-0.171,0.666-0.256c0.516-0.181,1.014-0.413,1.485-0.691c0.111-0.068,0.23-0.094,0.341-0.162     c0.111-0.068,0.145-0.171,0.239-0.239c0.83-0.574,1.55-1.294,2.125-2.125l68.267-102.357c1.776-2.62,1.955-6.008,0.467-8.801     c-1.489-2.793-4.401-4.533-7.566-4.52h-34.133v-55.33c66.439,17.294,109.704,81.233,101.051,149.338S324.653,443.603,256,443.733     c-68.653-0.131-126.532-51.22-135.184-119.325S155.428,192.364,221.867,175.07z" fill="#FFFFFF"/>
			<path d="M204.8,392.533h102.4c4.713,0,8.533-3.82,8.533-8.533s-3.82-8.533-8.533-8.533H204.8c-4.713,0-8.533,3.82-8.533,8.533     S200.087,392.533,204.8,392.533z" fill="#FFFFFF"/>
		</g>
	</g>
</g>
<g>
</g>
<g>
</g>
<g>
</g>
<g>
</g>
<g>
</g>
<g>
</g>
<g>
</g>
<g>
</g>
<g>
</g>
<g>
</g>
<g>
</g>
<g>
</g>
<g>
</g>
<g>
</g>
<g>
</g>
</svg>
