<?xml version="1.0" encoding="iso-8859-1"?>
<!-- Generator: Adobe Illustrator 19.0.0, SVG Export Plug-In . SVG Version: 6.00 Build 0)  -->
<svg version="1.1" id="Capa_1" xmlns="http://www.w3.org/2000/svg" xmlns:xlink="http://www.w3.org/1999/xlink" x="0px" y="0px"
	 viewBox="0 0 512 512" style="enable-background:new 0 0 512 512;" xml:space="preserve">
<path style="fill:#FFF6A4;" d="M256,512c-68.38,0-132.668-26.629-181.019-74.981C26.628,388.668,0,324.38,0,256
	S26.628,123.332,74.981,74.981C123.332,26.629,187.62,0,256,0s132.668,26.629,181.019,74.981C485.372,123.332,512,187.62,512,256
	s-26.628,132.668-74.981,181.019C388.668,485.371,324.38,512,256,512z"/>
<path style="fill:#FFEE4E;" d="M437.019,437.019C485.372,388.668,512,324.38,512,256s-26.628-132.668-74.981-181.019
	C388.668,26.629,324.38,0,256,0v512C324.38,512,388.668,485.371,437.019,437.019z"/>
<path style="fill:#444444;" d="M189.848,214.409c-3.9,0-7.8-1.488-10.774-4.464c-13.071-13.07-34.339-13.071-47.41,0
	c-5.95,5.95-15.599,5.95-21.55,0c-5.951-5.95-5.951-15.599,0-21.55c24.953-24.953,65.556-24.955,90.509,0
	c5.951,5.95,5.951,15.599,0,21.55C197.648,212.921,193.748,214.409,189.848,214.409z"/>
<path style="fill:#282828;" d="M391.111,214.409c-3.9,0-7.8-1.488-10.774-4.464c-13.072-13.072-34.34-13.071-47.41,0
	c-5.95,5.95-15.599,5.95-21.55,0s-5.951-15.599,0-21.55c24.953-24.955,65.556-24.953,90.509,0c5.951,5.95,5.951,15.599,0,21.55
	C398.911,212.921,395.011,214.409,391.111,214.409z"/>
<path style="fill:#FF5E8D;" d="M256,432.762c-82.902,0-150.349-67.447-150.349-150.349c0-8.415,6.823-15.238,15.238-15.238h270.222
	c8.415,0,15.238,6.823,15.238,15.238C406.349,365.315,338.902,432.762,256,432.762z"/>
<path style="fill:#FF3DA8;" d="M391.111,267.175H256v165.587c82.902,0,150.349-67.447,150.349-150.349
	C406.349,273.997,399.527,267.175,391.111,267.175z"/>
<g>
</g>
<g>
</g>
<g>
</g>
<g>
</g>
<g>
</g>
<g>
</g>
<g>
</g>
<g>
</g>
<g>
</g>
<g>
</g>
<g>
</g>
<g>
</g>
<g>
</g>
<g>
</g>
<g>
</g>
</svg>
