<?xml version="1.0" encoding="iso-8859-1"?>
<!-- Generator: Adobe Illustrator 19.0.0, SVG Export Plug-In . SVG Version: 6.00 Build 0)  -->
<svg version="1.1" id="Layer_1" xmlns="http://www.w3.org/2000/svg" xmlns:xlink="http://www.w3.org/1999/xlink" x="0px" y="0px"
	 viewBox="0 0 512 512" style="enable-background:new 0 0 512 512;" xml:space="preserve">
<path style="fill:#981700;" d="M382.342,289.279v162.556v51.413h-270.52v-51.412V289.279v-51.412
	c0-60.014,48.888-109.115,108.648-109.115h53.215c59.76,0,108.656,49.102,108.656,109.115v51.412H382.342z"/>
<path style="fill:#731700;" d="M382.338,336.606v115.23v51.412H111.819v-51.412v-115.23H382.338z"/>
<path style="fill:#B76700;" d="M298.646,227.478v21.504c0,29.567-24.087,53.757-53.532,53.757c-29.443,0-53.53-24.189-53.53-53.757
	v-21.504c0-29.568,24.087-53.757,53.53-53.757C274.559,173.721,298.646,197.91,298.646,227.478z"/>
<path style="fill:#CF8F3D;" d="M244.925,237.607c-14.068,17.629-17.671,48.537-0.586,65.112
	c-29.088-0.422-52.755-24.43-52.755-53.737v-21.504c0-29.39,23.801-53.455,53.002-53.743c0.003,0.142,0.06,0.284,0.172,0.388
	C261.401,189.721,258.573,220.504,244.925,237.607z"/>
<path d="M411.422,0c-4.795,0-8.681,3.919-8.681,8.752v26.483H247.223c-0.047,0-0.093-0.005-0.14-0.005s-0.093,0.004-0.14,0.005
	h-34.476c-4.795,0-8.682,3.919-8.682,8.752s3.887,8.752,8.682,8.752h25.935v67.26H220.47c-64.734,0-117.4,52.875-117.4,117.866
	v90.027c-4.436,0.391-7.917,4.14-7.917,8.713c0,4.573,3.481,8.322,7.917,8.713v149.178h-2.492c-4.795,0-8.681,3.919-8.681,8.752
	S95.784,512,100.578,512h11.244h270.519h11.236c4.795,0,8.681-3.919,8.681-8.752s-3.886-8.752-8.681-8.752h-2.483V345.319
	c4.433-0.394,7.91-4.142,7.91-8.713s-3.477-8.319-7.91-8.713v-90.027c0-64.991-52.669-117.866-117.407-117.866h-17.921V52.74h154.09
	c0.26,0,0.516-0.018,0.77-0.039c0.263,0.024,0.527,0.04,0.796,0.04c4.795,0,8.681-3.919,8.681-8.752V8.752
	C420.103,3.919,416.216,0,411.422,0z M373.589,237.867v89.987h-78.207c-4.795,0-8.681,3.919-8.681,8.752
	c0,4.833,3.886,8.752,8.681,8.752h78.207v149.138H120.575V345.358h78.199c4.795,0,8.681-3.919,8.681-8.752s-3.887-8.752-8.681-8.752
	h-78.199v-89.987c0-55.34,44.813-100.362,99.896-100.362h53.216C328.773,137.505,373.589,182.527,373.589,237.867z M206.427,441.135
	c0,4.833-3.887,8.752-8.681,8.752h-1.935c-4.795,0-8.682-3.919-8.682-8.752s3.887-8.752,8.682-8.752h1.935
	C202.541,432.383,206.427,436.302,206.427,441.135z M254.762,441.135c0,4.833-3.887,8.752-8.681,8.752h-1.932
	c-4.795,0-8.681-3.919-8.681-8.752s3.887-8.752,8.681-8.752h1.932C250.876,432.383,254.762,436.302,254.762,441.135z
	 M230.595,387.797c0,4.833-3.887,8.752-8.681,8.752h-1.935c-4.795,0-8.681-3.919-8.681-8.752s3.887-8.752,8.681-8.752h1.935
	C226.708,379.045,230.595,382.964,230.595,387.797z M292.484,432.383h1.935c4.795,0,8.681,3.919,8.681,8.752
	s-3.887,8.752-8.681,8.752h-1.935c-4.795,0-8.681-3.919-8.681-8.752S287.69,432.383,292.484,432.383z M278.931,387.797
	c0,4.833-3.887,8.752-8.682,8.752h-1.932c-4.795,0-8.681-3.919-8.681-8.752s3.887-8.752,8.681-8.752h1.932
	C275.044,379.045,278.931,382.964,278.931,387.797z M244.793,164.978c-34.196,0.175-61.962,28.141-61.962,62.5v21.503
	c0,34.467,27.939,62.509,62.282,62.509c34.344,0,62.285-28.042,62.285-62.509v-21.502c0-34.467-27.94-62.509-62.285-62.509
	c-0.093,0-0.184,0.007-0.277,0.007C244.823,164.978,244.808,164.978,244.793,164.978z M200.336,248.982v-21.503
	c0-23.591,18.161-42.989,41.167-44.845c9.706,12.245,8.658,35.323-2.919,49.83c-8.401,10.529-13.424,24.636-13.778,38.705
	c-0.173,6.842,0.745,13.302,2.66,19.167C211.525,283.438,200.336,267.5,200.336,248.982z M289.893,227.479v21.503
	c0,23.595-18.166,42.994-41.178,44.846c-10.75-13.275-7.498-36.739,3.396-50.392c11.845-14.844,16.918-38.178,10.685-57.296
	C278.719,193.046,289.893,208.973,289.893,227.479z"/>
<g>
</g>
<g>
</g>
<g>
</g>
<g>
</g>
<g>
</g>
<g>
</g>
<g>
</g>
<g>
</g>
<g>
</g>
<g>
</g>
<g>
</g>
<g>
</g>
<g>
</g>
<g>
</g>
<g>
</g>
</svg>
