<svg id="Layer_1" data-name="Layer 1" xmlns="http://www.w3.org/2000/svg" viewBox="0 0 250 250"><defs><style>.cls-1,.cls-11,.cls-12,.cls-3,.cls-4,.cls-5,.cls-7,.cls-8,.cls-9{fill:none;stroke:#000;stroke-miterlimit:10;}.cls-1,.cls-3,.cls-4,.cls-5{stroke-width:0.25px;}.cls-1{stroke-dasharray:11.9 11.9;}.cls-14,.cls-2{opacity:0.25;}.cls-4{stroke-dasharray:11.57 11.57;}.cls-5{stroke-dasharray:12.02 12.02;}.cls-6{fill:#ff314f;}.cls-11,.cls-12,.cls-7,.cls-8,.cls-9{stroke-width:0.5px;}.cls-8{stroke-dasharray:10.67 10.67;}.cls-9{stroke-dasharray:10.67 10.67;}.cls-10{fill:#ff6262;}.cls-11{stroke-dasharray:10.67 10.67;}.cls-12{stroke-dasharray:10.67 10.67;}.cls-13{fill:#ffc5bd;}.cls-14{fill:#ffad9e;}</style></defs><title>Artboard 1</title><circle class="cls-1" cx="125" cy="125" r="125"/><g class="cls-2"><polyline class="cls-3" points="197.01 58.1 192.77 53.86 190.84 59.54"/><polyline class="cls-4" points="187.1 70.49 165.18 134.77 66.05 185.68"/><polyline class="cls-3" points="60.9 188.32 55.56 191.06 59.81 195.31"/><path class="cls-5" d="M68.3,203.8,114,249.51c3.61.29,7.28.49,11,.49A125,125,0,0,0,250,125v0a123.31,123.31,0,0,0-.88-14.75l-47.86-47.9"/></g><g class="cls-2"><rect class="cls-6" x="106.1" y="53.86" width="86.67" height="86.67"/><polyline class="cls-7" points="106.1 59.86 106.1 53.86 112.1 53.86"/><line class="cls-8" x1="122.77" y1="53.86" x2="181.44" y2="53.86"/><polyline class="cls-7" points="186.77 53.86 192.77 53.86 192.77 59.86"/><line class="cls-9" x1="192.77" y1="70.52" x2="192.77" y2="129.19"/><polyline class="cls-7" points="192.77 134.53 192.77 140.53 186.77 140.53"/><line class="cls-8" x1="176.1" y1="140.53" x2="117.43" y2="140.53"/><polyline class="cls-7" points="112.1 140.53 106.1 140.53 106.1 134.53"/><line class="cls-9" x1="106.1" y1="123.86" x2="106.1" y2="65.19"/></g><g class="cls-2"><rect class="cls-10" x="84.42" y="75.54" width="86.67" height="86.67"/><polyline class="cls-7" points="84.42 81.54 84.42 75.54 90.42 75.54"/><line class="cls-11" x1="101.09" y1="75.54" x2="159.76" y2="75.54"/><polyline class="cls-7" points="165.09 75.54 171.09 75.54 171.09 81.54"/><line class="cls-12" x1="171.09" y1="92.2" x2="171.09" y2="150.87"/><polyline class="cls-7" points="171.09 156.21 171.09 162.21 165.09 162.21"/><line class="cls-11" x1="154.42" y1="162.21" x2="95.76" y2="162.21"/><polyline class="cls-7" points="90.42 162.21 84.42 162.21 84.42 156.21"/><line class="cls-12" x1="84.42" y1="145.54" x2="84.42" y2="86.87"/></g><g class="cls-2"><rect class="cls-13" x="55.56" y="104.44" width="86.67" height="86.67"/><polyline class="cls-7" points="55.56 110.44 55.56 104.44 61.56 104.44"/><line class="cls-8" x1="72.23" y1="104.44" x2="130.9" y2="104.44"/><polyline class="cls-7" points="136.23 104.44 142.23 104.44 142.23 110.44"/><line class="cls-12" x1="142.23" y1="121.11" x2="142.23" y2="179.78"/><polyline class="cls-7" points="142.23 185.11 142.23 191.11 136.23 191.11"/><line class="cls-8" x1="125.57" y1="191.11" x2="66.9" y2="191.11"/><polyline class="cls-7" points="61.56 191.11 55.56 191.11 55.56 185.11"/><line class="cls-12" x1="55.56" y1="174.45" x2="55.56" y2="115.78"/></g><rect class="cls-14" x="98.87" y="104.44" width="43.31" height="86.67"/><path d="M124,156.75a14,14,0,1,0,0,28c7.33,0,14-6.38,13.65-13.66A13.65,13.65,0,0,0,124,156.75Z"/><path d="M120.53,58.53c-6.66,1.9-10.81,7.94-10.81,15.28.34,4.42.62,8.89,1,13.32.95,16.84,1.9,33.35,2.85,50.2A10.26,10.26,0,0,0,124,147.18,10.46,10.46,0,0,0,134.46,137c0-3.47,0-6.66.34-10.18.61-10.81,1.28-21.61,1.9-32.41.34-7,1-14,1.29-21a17.31,17.31,0,0,0-1.29-7A14,14,0,0,0,120.53,58.53Z"/></svg>