<?xml version="1.0" encoding="iso-8859-1"?>
<!-- Generator: Adobe Illustrator 19.0.0, SVG Export Plug-In . SVG Version: 6.00 Build 0)  -->
<svg version="1.1" id="Capa_1" xmlns="http://www.w3.org/2000/svg" xmlns:xlink="http://www.w3.org/1999/xlink" x="0px" y="0px"
	 viewBox="0 0 460 460" style="enable-background:new 0 0 460 460;" xml:space="preserve">
<g id="XMLID_104_">
	<path id="XMLID_105_" style="fill:#404040;" d="M340.977,50c2.554,4.414,4.023,9.534,4.023,15s-1.469,10.586-4.023,15H375V50
		H340.977z"/>
	<polygon id="XMLID_106_" style="fill:#404040;" points="102.833,50 117.79,80 255,80 255,50 	"/>
	<rect id="XMLID_107_" x="255" y="35" style="fill:#FF6A00;" width="30" height="60"/>
	<path id="XMLID_108_" style="fill:#FFAA19;" d="M340.977,50c-5.188-8.964-14.874-15-25.977-15c-16.569,0-30,0-30,0v60
		c0,0,13.431,0,30,0c11.102,0,20.789-6.036,25.977-15c2.554-4.414,4.023-9.534,4.023-15S343.531,54.414,340.977,50z"/>
	<polygon id="XMLID_109_" style="fill:#404040;" points="445,30 425,30 425,0 395,0 395,30 410,30 410,100 395,100 395,160 425,160 
		425,100 445,100 	"/>
	<rect id="XMLID_110_" x="375" y="30" style="fill:#606060;" width="35" height="70"/>
	<polygon id="XMLID_138_" style="fill:#BFBFBF;" points="144.788,340 69.788,340 63.121,370 144.788,370 	"/>
	<polygon id="XMLID_169_" style="fill:#BFBFBF;" points="144.788,400 56.454,400 49.788,430 144.788,430 	"/>
	<polygon id="XMLID_197_" style="fill:#A3A3A3;" points="144.788,430 239.788,430 233.121,400 144.788,400 	"/>
	<polygon id="XMLID_221_" style="fill:#A3A3A3;" points="144.788,370 226.454,370 219.788,340 144.788,340 	"/>
	<path id="XMLID_222_" style="fill:#FFAA19;" d="M144.788,279.999c-16.512-0.013-32.403-9.138-40.272-24.92l-26.77-53.692
		C72.665,211.5,69.788,222.911,69.788,235c0,41.421,0,75,0,75h75V279.999z"/>
	<path id="XMLID_223_" style="fill:#FF6A00;" d="M164.866,275.272l-13.386-26.848c-7.414,3.697-16.421,0.683-20.117-6.731
		c-3.697-7.414-0.683-16.42,6.731-20.117L66.716,78.413c-7.427,3.704-16.434,0.69-20.13-6.724c-1.156-2.318-1.655-4.792-1.57-7.211
		c0.177-5.329,3.194-10.394,8.301-12.94L39.931,24.69C17.689,35.78,8.648,62.799,19.738,85.042l58.008,116.345l26.77,53.692
		c7.869,15.782,23.76,24.907,40.272,24.92V310h75c0,0,0-33.579,0-75c0-36.808-26.523-67.4-61.494-73.764l26.766,53.685
		C196.149,237.163,187.108,264.183,164.866,275.272z"/>
	<rect id="XMLID_224_" x="29.788" y="430" style="fill:#606060;" width="115" height="30"/>
	<rect id="XMLID_225_" x="144.788" y="430" style="fill:#404040;" width="115" height="30"/>
	<rect id="XMLID_226_" x="49.788" y="370" style="fill:#8F8F8F;" width="95" height="30"/>
	<rect id="XMLID_227_" x="144.788" y="370" style="fill:#606060;" width="95" height="30"/>
	<rect id="XMLID_228_" x="69.788" y="310" style="fill:#8F8F8F;" width="75" height="30"/>
	<rect id="XMLID_229_" x="144.788" y="310" style="fill:#606060;" width="75" height="30"/>
	<path id="XMLID_230_" style="fill:#FF3D0D;" d="M100.282,44.884C89.193,22.642,62.173,13.601,39.931,24.69l13.386,26.848
		c7.414-3.697,16.421-0.683,20.117,6.731c1.156,2.318,1.655,4.792,1.57,7.211c-0.177,5.324-3.189,10.385-8.287,12.933
		l71.378,143.163c7.414-3.697,16.421-0.683,20.117,6.731c3.696,7.414,0.683,16.42-6.731,20.117l13.386,26.848
		c22.242-11.089,31.282-38.109,20.193-60.351l-26.766-53.685L117.79,80l-14.957-30L100.282,44.884z"/>
	<circle id="XMLID_231_" style="fill:#404040;" cx="144.788" cy="235" r="15"/>
	<path id="XMLID_232_" style="fill:#404040;" d="M45.016,64.479c-0.086,2.419,0.414,4.893,1.57,7.211
		c3.696,7.414,12.703,10.428,20.117,6.731c5.111-2.556,8.124-7.616,8.301-12.94c0.086-2.418-0.414-4.893-1.57-7.211
		c-3.696-7.414-12.703-10.428-20.117-6.731C48.21,54.084,45.193,59.149,45.016,64.479z"/>
</g>
<g>
</g>
<g>
</g>
<g>
</g>
<g>
</g>
<g>
</g>
<g>
</g>
<g>
</g>
<g>
</g>
<g>
</g>
<g>
</g>
<g>
</g>
<g>
</g>
<g>
</g>
<g>
</g>
<g>
</g>
</svg>
