<?xml version="1.0" encoding="iso-8859-1"?>
<!-- Generator: Adobe Illustrator 19.0.0, SVG Export Plug-In . SVG Version: 6.00 Build 0)  -->
<svg version="1.1" id="Capa_1" xmlns="http://www.w3.org/2000/svg" xmlns:xlink="http://www.w3.org/1999/xlink" x="0px" y="0px"
	 viewBox="0 0 469.127 469.127" style="enable-background:new 0 0 469.127 469.127;" xml:space="preserve">
<path style="fill:#ED664C;" d="M320.764,196.014v0.5c11.9,0,22,10,22,22c0,6-2.5,11.4-6.5,15.4s-9.5,6.5-15.4,6.5h-8.6v0.9
	c11.9,0,22,10,22,22c0,6-2.5,11.5-6,15.5s-7.9,6.5-11.7,6.5h-13.4v0.9c11.9,0,22,10,22,22c0,6-2.5,11.5-6,15.5s-7.9,6.5-11.7,6.5
	h-25.2h-31.2h-15.5h-7.4h-53c-32,0-58.2-26.3-58.2-58.2v-92.1c0-32,26.3-58.2,58.2-58.2h58.9h1.5v28.8v1.7h46.7h47.6
	c11.9,0,22,10,22,22c0,6-2.5,11.5-6.5,15.5s-9.5,6.5-15.5,6.5h-9.1V196.014z"/>
<g>
	<path style="fill:#FDC75B;" d="M297.664,25.214c21.1,21.1,21.1,56.8,0,77.9c-4.4,4.1-9.1,7.6-15.4,10.4v36.9v1.7h-46.7v-1.7v-28.8
		v-8c-6.3-2.8-11-6-15.5-10.4c-21.1-21.1-21.1-56.8,0-77.9c5.1-5,10.7-8.8,18.9-12l7.9-3.2v38.3c0,6.9,5,12,12,12s12-5.1,12-12
		v-38.4l7.9,3.2C286.664,16.314,292.664,20.114,297.664,25.214z"/>
	<path style="fill:#FDC75B;" d="M297.664,366.114c21.1,21.1,21.1,56.8,0,77.9c-5,5-10.7,8.8-18.9,12l-7.9,3.2v-38.3
		c0-6.9-5-12-12-12s-12,5.1-12,12v38.3l-7.9-3.2c-7.9-3.1-13.9-6.9-18.9-12c-21.1-21.1-21.1-56.8,0-77.9c4.4-4.1,9.1-7.6,15.5-10.4
		v-23.7v-1.9h15.5h31.2v0.9v24.6C288.564,358.614,293.264,361.714,297.664,366.114z"/>
</g>
<path d="M361.864,173.814c0-17.3-14.6-32.2-32-32.2h-37.5v-22c4-2.5,8.2-5.5,12.2-9.2c0.1-0.1,0.1-0.2,0.2-0.3
	c24.9-24.9,24.9-67.1,0-92c-6-6-13.1-10.5-22.3-14.2l-7.9-3.2c-3.1-1.2-6.3-0.9-9.1,1c-2.7,1.9-4.2,5-4.2,8.3v38.3c0,1.4-0.6,2-2,2
	s-2-0.6-2-2v-38.3c0-3.3-1.9-6.4-4.6-8.3s-6.4-2.2-9.4-1l-7.9,3.1c-9.1,3.5-16,7.9-22.4,14.2c-24.9,24.9-25,67.1,0,92.1
	c0.5,0.5,0.9,0.4,1.4,1.4h-39.3c-37.6,0-67.8,30.5-67.8,68.2v92.1c0,37.6,30.2,68.7,67.8,68.7h50.3v9c-4,2.5-8.1,5.4-12.2,9.2
	c-0.1,0.1-0.1,0.2-0.2,0.3c-12.1,12.1-18.8,28.5-18.8,46c0,17.6,6.7,33.9,18.8,46c6,6,13.1,10.5,22.3,14.2l7.9,3.2
	c1.2,0.5,2.5,0.7,3.7,0.7c2,0,4.1-0.6,5.8-1.7c2.8-1.9,4.6-5,4.6-8.3v-38.3c0-1.4,0.6-2,2-2s2,0.6,2,2v38.3c0,3.3,1.4,6.4,4.2,8.3
	c2.7,1.9,6.1,2.2,9.2,1l7.8-3.1c9.1-3.5,16-7.9,22.3-14.2c12.1-12.1,18.8-28.5,18.8-46c0-17.6-6.6-33.9-18.7-46
	c-3.8-3.8-7.5-6.8-12.5-9.5v-9h15c6.8,0,13.8-3.9,19.3-10.2c5.4-6.3,8.4-14.2,8.4-22.1c0-6.4-2-12.4-5.4-17.5c2.1-1.5,4.2-3.3,6-5.5
	c5.4-6.3,8.4-14.1,8.4-22c0-6.7-2.2-13-5.9-18.2c1.8-1.2,3.5-2.6,5-4.1c6.1-6.1,9.4-14.1,9.4-22.5c0-6.5-2-12.6-5.5-17.7
	c1.8-1.2,3.6-2.7,5.2-4.3C358.464,190.314,361.864,182.214,361.864,173.814z M227.364,32.214c2.9-2.9,6-5.2,10-7.2v23.3
	c0,12.5,9.5,22,22,22s22-9.5,22-22v-23.2c3,2,6.7,4.3,9.5,7.1c17.2,17.2,17.2,46.3,0,63.6c-4.2,3.8-7.9,6.4-12.6,8.5
	c-3.6,1.6-5.9,5.2-5.9,9.1v28.2h-27v-28.1c0-3.9-2.2-7.5-5.8-9.1c-5.3-2.4-8.8-4.9-12.3-8.4
	C209.964,78.714,210.164,49.514,227.364,32.214z M278.164,364.814c5.3,2.4,9,4.9,12.5,8.4c17.3,17.3,17.5,46.5,0.2,63.8
	c-2.9,2.9-6.5,5.2-9.5,7.2v-23.3c0-12.5-9.5-22-22-22s-22,9.5-22,22v23.2c-4-2-7.2-4.3-10-7.1c-17.2-17.2-17.4-46.3-0.2-63.6
	c4.2-3.8,7.8-6.4,12.5-8.5c3.6-1.6,5.7-5.2,5.7-9.1v-15.2h27v15.1C272.364,359.714,274.664,363.214,278.164,364.814z
	 M311.564,317.314c-2,2.4-3.8,3.3-4.1,3.3h-79.3h-53c-26.6,0-47.8-22.1-47.8-48.7v-92.1c0-26.6,21.2-48.2,47.8-48.2h50.2v10h-26.5
	c-5.5,0-10,4.5-10,10s4.5,10,10,10h131c6.4,0,12,5.8,12,12.2c0,3.1-1.3,6-3.6,8.3c-2.3,2.3-5.3,3.5-8.4,3.5h-12.4
	c-5.5,0-10,4.5-10,10s4.5,10,10,10h0.3c1,1,2,0.7,3,0.7c6.4,0,12,5.7,12,12.1c0,3.1-1.3,6.2-3.6,8.5c-2.3,2.3-5.3,3.7-8.4,3.7h-12.4
	c-5.5,0-10,4.4-10,9.9c0,5.4,4.2,9.7,9.5,9.9c1.3,0.6,2.7,0.9,4.3,0.9c6.4,0,12,5.6,12,12c0,3.1-1.3,6.5-3.5,9.1
	c-2,2.4-3.8,3.2-4.1,3.2h-16.7c-5.5,0-10,4.3-10,9.8c0,5.2,3.9,9.4,9,9.9c1.3,0.6,2.8,1,4.3,1c6.4,0,12,5.7,12,12.1
	C315.064,311.414,313.764,314.714,311.564,317.314z"/>
<g>
</g>
<g>
</g>
<g>
</g>
<g>
</g>
<g>
</g>
<g>
</g>
<g>
</g>
<g>
</g>
<g>
</g>
<g>
</g>
<g>
</g>
<g>
</g>
<g>
</g>
<g>
</g>
<g>
</g>
</svg>
