<?xml version="1.0" encoding="iso-8859-1"?>
<!-- Generator: Adobe Illustrator 19.0.0, SVG Export Plug-In . SVG Version: 6.00 Build 0)  -->
<svg version="1.1" id="Capa_1" xmlns="http://www.w3.org/2000/svg" xmlns:xlink="http://www.w3.org/1999/xlink" x="0px" y="0px"
	 viewBox="0 0 512 512" style="enable-background:new 0 0 512 512;" xml:space="preserve">
<circle style="fill:#590F38;" cx="256" cy="256" r="256"/>
<path style="fill:#3A082A;" d="M512,256c0-10.108-0.605-20.073-1.745-29.875L415.8,131.67H89.145v252.96l186.227,126.644
	C407.707,501.373,512,390.868,512,256z"/>
<g>
	<path style="fill:#FFFFFF;" d="M395.03,384.63v-20h20.01v20C395.03,384.63,415.04,384.63,395.03,384.63z M361.04,384.63v-20h20v20
		C361.04,384.63,381.04,384.63,361.04,384.63z M327.04,384.63v-20h20v20C327.04,384.63,347.04,384.63,327.04,384.63z M293.04,384.63
		v-20h20v20C293.04,384.63,313.04,384.63,293.04,384.63z M259.04,384.63v-20h20v20C259.04,384.63,279.04,384.63,259.04,384.63z
		 M225.04,384.63v-20h20v20C225.04,384.63,245.04,384.63,225.04,384.63z M191.04,384.63v-20h20v20
		C191.04,384.63,211.04,384.63,191.04,384.63z M157.04,384.63v-20h20v20C157.04,384.63,177.04,384.63,157.04,384.63z M123.04,384.63
		v-20h20v20C123.04,384.63,143.04,384.63,123.04,384.63z M89.145,384.63v-20h19.896v20C89.04,384.63,109.145,384.63,89.145,384.63z
		 M89.145,354.91v-20h19.896v20C89.04,354.91,109.145,354.91,89.145,354.91z M397.939,353.53v-20h20v20
		C397.939,353.53,417.939,353.53,397.939,353.53z M89.145,320.91v-20h19.896v20C89.04,320.91,109.145,320.91,89.145,320.91z
		 M397.939,319.53v-20h20v20C397.939,319.53,417.939,319.53,397.939,319.53z M89.145,286.91v-20h19.896v20
		C89.04,286.91,109.145,286.91,89.145,286.91z M397.939,285.53v-20h20v20C397.939,285.53,417.939,285.53,397.939,285.53z
		 M89.145,252.91v-20h19.896v20C89.04,252.91,109.145,252.91,89.145,252.91z M397.939,251.53v-20h20v20
		C397.939,251.53,417.939,251.53,397.939,251.53z M89.145,218.91v-20h19.896v20C89.04,218.91,109.145,218.91,89.145,218.91z
		 M397.939,217.53v-20h20v20C397.939,217.53,417.939,217.53,397.939,217.53z M89.145,184.91v-20h19.896v20
		C89.04,184.91,109.145,184.91,89.145,184.91z M397.939,183.53v-20h20v20C397.939,183.53,417.939,183.53,397.939,183.53z
		 M395.8,151.67v-20h20v20C395.8,151.67,415.8,151.67,395.8,151.67z M361.8,151.67v-20h20v20
		C361.8,151.67,381.8,151.67,361.8,151.67z M327.8,151.67v-20h20v20C327.8,151.67,347.8,151.67,327.8,151.67z M293.8,151.67v-20h20
		v20C293.8,151.67,313.8,151.67,293.8,151.67z M259.8,151.67v-20h20v20C259.8,151.67,279.8,151.67,259.8,151.67z M225.8,151.67v-20
		h20v20C225.8,151.67,245.8,151.67,225.8,151.67z M191.8,151.67v-20h20v20C191.8,151.67,211.8,151.67,191.8,151.67z M157.8,151.67
		v-20h20v20C157.8,151.67,177.8,151.67,157.8,151.67z M123.8,151.67v-20h20v20C123.8,151.67,143.8,151.67,123.8,151.67z
		 M89.145,151.67v-20H109.8v20C89.8,151.67,109.145,151.67,89.145,151.67z"/>
	<rect x="89.14" y="199.05" style="fill:#FFFFFF;" width="244.01" height="185.58"/>
</g>
<rect x="211.51" y="199.05" style="fill:#E0E0E0;" width="121.65" height="185.58"/>
<rect x="116.18" y="222.78" style="fill:#35CCFF;" width="189.95" height="138.14"/>
<rect x="211.51" y="222.78" style="fill:#00BAFF;" width="94.61" height="138.14"/>
<polygon style="fill:#AE4E32;" points="158.999,360.913 231.952,260.83 295.642,360.913 "/>
<polygon style="fill:#9B3E29;" points="231.952,260.83 211.51,288.875 211.51,360.913 295.642,360.913 "/>
<polygon style="fill:#FF6838;" points="116.177,360.913 176.463,278.208 229.093,360.913 "/>
<polygon style="fill:#AE4E32;" points="211.51,333.282 211.51,360.913 229.093,360.913 "/>
<circle style="fill:#FFDC00;" cx="271.68" cy="253.33" r="21.05"/>
<g>
</g>
<g>
</g>
<g>
</g>
<g>
</g>
<g>
</g>
<g>
</g>
<g>
</g>
<g>
</g>
<g>
</g>
<g>
</g>
<g>
</g>
<g>
</g>
<g>
</g>
<g>
</g>
<g>
</g>
</svg>
