<?xml version="1.0" encoding="iso-8859-1"?>
<!-- Generator: Adobe Illustrator 19.0.0, SVG Export Plug-In . SVG Version: 6.00 Build 0)  -->
<svg version="1.1" id="Capa_1" xmlns="http://www.w3.org/2000/svg" xmlns:xlink="http://www.w3.org/1999/xlink" x="0px" y="0px"
	 viewBox="0 0 512 512" style="enable-background:new 0 0 512 512;" xml:space="preserve">
<g>
	<g>
		<path d="M432,100c-5.52,0-10,4.48-10,10s4.48,10,10,10c5.52,0,10-4.48,10-10S437.52,100,432,100z"/>
	</g>
</g>
<g>
	<g>
		<path d="M80,100c-5.52,0-10,4.48-10,10s4.48,10,10,10s10-4.48,10-10S85.52,100,80,100z"/>
	</g>
</g>
<g>
	<g>
		<path d="M502,220h-11.96c-3.738-28.804-12.77-56.253-26.944-81.705c-2.687-4.824-8.776-6.559-13.602-3.872
			c-4.825,2.687-6.559,8.777-3.872,13.602c12.508,22.463,20.646,46.628,24.252,71.975H462c-5.523,0-10,4.477-10,10v40
			c0,5.523,4.477,10,10,10h40c5.523,0,10-4.477,10-10v-40C512,224.477,507.523,220,502,220z M492,260h-20v-20h9.078
			c0.003,0,0.007,0,0.01,0c0.004,0,0.007,0,0.011,0H492V260z"/>
	</g>
</g>
<g>
	<g>
		<path d="M365.981,292.621c-0.006-0.155-0.01-0.31-0.023-0.465c-0.018-0.212-0.047-0.421-0.078-0.629
			c-0.019-0.128-0.034-0.256-0.059-0.384c-0.046-0.245-0.106-0.485-0.169-0.724c-0.024-0.091-0.043-0.182-0.07-0.272
			c-0.089-0.299-0.193-0.592-0.309-0.879c-0.013-0.031-0.022-0.064-0.035-0.095c-0.138-0.334-0.293-0.659-0.465-0.973
			l-99.998-182.996C263.022,101.996,259.657,100,256,100c-3.657,0-7.022,1.996-8.775,5.205l-99.998,182.996
			c-0.172,0.314-0.327,0.639-0.465,0.973c-0.013,0.031-0.022,0.063-0.035,0.095c-0.116,0.287-0.22,0.58-0.309,0.879
			c-0.027,0.09-0.046,0.181-0.07,0.272c-0.064,0.239-0.123,0.478-0.169,0.724c-0.024,0.127-0.039,0.255-0.059,0.384
			c-0.031,0.208-0.06,0.417-0.078,0.629c-0.013,0.155-0.018,0.31-0.023,0.465c-0.005,0.126-0.019,0.25-0.019,0.378
			c0,0.066,0.009,0.129,0.01,0.195c0.003,0.157,0.013,0.313,0.024,0.47c0.013,0.199,0.029,0.397,0.054,0.593
			c0.018,0.138,0.04,0.275,0.063,0.413c0.036,0.216,0.079,0.43,0.129,0.641c0.028,0.119,0.059,0.238,0.092,0.356
			c0.063,0.228,0.135,0.452,0.213,0.673c0.022,0.063,0.036,0.127,0.06,0.19l36.064,95.569c-2.893,1.434-5.569,3.339-7.92,5.689
			C169.121,403.457,166,410.99,166,419c0,13.036,8.361,24.152,20,28.28V502c0,5.523,4.477,10,10,10h120c5.523,0,10-4.477,10-10
			v-54.703c4.169-1.471,7.992-3.866,11.212-7.086C342.879,434.543,346,427.01,346,419c0-11.773-6.819-21.978-16.713-26.887
			l36.069-95.582c0.024-0.063,0.038-0.127,0.06-0.19c0.078-0.221,0.15-0.445,0.213-0.673c0.033-0.118,0.063-0.237,0.092-0.356
			c0.05-0.211,0.092-0.425,0.129-0.641c0.023-0.138,0.046-0.275,0.063-0.413c0.025-0.196,0.041-0.394,0.054-0.593
			c0.01-0.157,0.021-0.313,0.024-0.47c0.001-0.065,0.01-0.129,0.01-0.195C366,292.872,365.986,292.748,365.981,292.621z M256,283
			c5.514,0,10,4.486,10,10c0,5.514-4.486,10-10,10c-5.514,0-10-4.486-10-10C246,287.486,250.486,283,256,283z M306,492H206v-43h100
			V492z M323.069,426.068c-1.89,1.891-4.401,2.932-7.069,2.932H196c-5.514,0-10-4.486-10-10c0-2.668,1.041-5.179,2.931-7.068
			c1.891-1.891,4.401-2.932,7.069-2.932h119.933c0.022,0,0.044,0.003,0.066,0.003c0.011,0,0.023-0.001,0.034-0.001
			c5.499,0.018,9.968,4.495,9.968,9.998C326,421.668,324.959,424.179,323.069,426.068z M309.085,389h-106.17l-32.453-86H196
			c5.523,0,10-4.477,10-10s-4.477-10-10-10h-23.14L246,149.154V264.72c-11.639,4.128-20,15.243-20,28.28c0,16.542,13.458,30,30,30
			s30-13.458,30-30c0-13.036-8.361-24.152-20-28.28V149.154L339.14,283H316c-5.523,0-10,4.477-10,10s4.477,10,10,10h25.538
			L309.085,389z"/>
	</g>
</g>
<g>
	<g>
		<path d="M62.505,134.423c-4.826-2.688-10.916-0.954-13.602,3.872C34.73,163.747,25.697,191.196,21.96,220H10
			c-5.523,0-10,4.477-10,10v40c0,5.523,4.477,10,10,10h40c5.523,0,10-4.477,10-10v-40c0-5.523-4.477-10-10-10h-7.875
			c3.607-25.347,11.744-49.512,24.252-71.975C69.064,143.2,67.331,137.11,62.505,134.423z M40,260H20v-20h10.901
			c0.004,0,0.007,0,0.011,0c0.003,0,0.007,0,0.01,0H40V260z"/>
	</g>
</g>
<g>
	<g>
		<path d="M482,0c-13.036,0-24.152,8.361-28.28,20H286V10c0-5.523-4.477-10-10-10h-40c-5.523,0-10,4.477-10,10v10H58.28
			C54.152,8.361,43.036,0,30,0C13.458,0,0,13.458,0,30s13.458,30,30,30c13.036,0,24.152-8.361,28.28-20h100.534
			c-21.329,8.925-40.889,20.511-56.989,34.084c-4.223,3.56-4.76,9.869-1.2,14.091c1.978,2.347,4.805,3.555,7.65,3.555
			c2.276,0,4.564-0.772,6.44-2.354C143.407,65.188,184.353,47.913,226,42.119V50c0,5.523,4.477,10,10,10h40c5.523,0,10-4.477,10-10
			v-7.881c41.647,5.794,82.593,23.069,111.285,47.256c1.876,1.582,4.164,2.355,6.44,2.354c2.846,0,5.673-1.208,7.65-3.555
			c3.561-4.221,3.023-10.53-1.2-14.09c-16.1-13.573-35.66-25.159-56.989-34.084H453.72c4.128,11.639,15.243,20,28.28,20
			c16.542,0,30-13.458,30-30S498.542,0,482,0z M30,40c-5.514,0-10-4.486-10-10s4.486-10,10-10s10,4.486,10,10S35.514,40,30,40z
			 M266,30v0.9V40h-20v-9.1V30V20h20V30z M482,40c-5.514,0-10-4.486-10-10s4.486-10,10-10c5.514,0,10,4.486,10,10S487.514,40,482,40
			z"/>
	</g>
</g>
<g>
</g>
<g>
</g>
<g>
</g>
<g>
</g>
<g>
</g>
<g>
</g>
<g>
</g>
<g>
</g>
<g>
</g>
<g>
</g>
<g>
</g>
<g>
</g>
<g>
</g>
<g>
</g>
<g>
</g>
</svg>
